<svg width="145" height="36" viewBox="0 0 145 36" fill="none" xmlns="http://www.w3.org/2000/svg">
<path d="M22 33.6771C31.1529 33.6771 38.5729 26.6582 38.5729 18C38.5729 9.3418 31.1529 2.32292 22 2.32292C12.847 2.32292 5.42708 9.3418 5.42708 18C5.42708 26.6582 12.847 33.6771 22 33.6771Z" stroke="#FFBB44" stroke-linecap="round" stroke-linejoin="round"/>
<path d="M28.3825 22.1563C29.2404 21.8281 30.7659 21.3921 31.2253 21.9185C31.7217 22.488 31.0943 23.7247 30.5162 24.685" stroke="#FFBB44" stroke-linecap="round" stroke-linejoin="round"/>
<path d="M12.5943 22.5376C13.9502 23.5562 17.9547 25.1152 22.2205 25.1152C26.2874 25.1152 28.7695 23.721 30.0575 22.8694" stroke="#FFBB44" stroke-linecap="round" stroke-linejoin="round"/>
<path d="M28.4765 10.0339H15.5235C15.0977 10.0339 14.7526 10.3603 14.7526 10.763V18.2866C14.7526 18.6893 15.0977 19.0157 15.5235 19.0157H28.4765C28.9023 19.0157 29.2474 18.6893 29.2474 18.2866V10.763C29.2474 10.3603 28.9023 10.0339 28.4765 10.0339Z" stroke="#FFBB44" stroke-linecap="round" stroke-linejoin="round"/>
<path d="M24.5646 10.0339V8.64333C24.5646 8.29523 24.4184 7.96142 24.1582 7.71525C23.898 7.46911 23.5451 7.33083 23.1771 7.33083H20.8229C20.4549 7.33083 20.1021 7.46911 19.8418 7.71525C19.5817 7.96142 19.4354 8.29523 19.4354 8.64333V10.0339" stroke="#FFBB44" stroke-linecap="round" stroke-linejoin="round"/>
<path d="M45.268 10.096L43.476 7.536C46.1427 5.97867 48.244 5.2 49.78 5.2C50.6547 5.2 51.2733 5.38133 51.636 5.744C51.9987 6.08533 52.18 6.74667 52.18 7.728C52.18 8.688 51.7 11.4187 50.74 15.92C49.8013 20.4213 49.332 23.5787 49.332 25.392C49.332 27.2053 49.6627 28.4853 50.324 29.232C48.8307 30.2773 47.476 30.8 46.26 30.8C45.044 30.8 44.148 30.4053 43.572 29.616C43.0173 28.8053 42.74 27.696 42.74 26.288C42.74 24.88 43.1347 22 43.924 17.648C44.7133 13.296 45.1613 10.7787 45.268 10.096ZM63.4045 30.8C60.4818 30.8 58.2205 30.0427 56.6205 28.528C55.0418 27.0133 54.2525 24.9653 54.2525 22.384C54.2525 18.9493 55.4258 16.1653 57.7725 14.032C60.1405 11.8773 63.1058 10.8 66.6685 10.8C68.6525 10.8 70.1565 11.248 71.1805 12.144C72.2045 13.0187 72.7165 14.1813 72.7165 15.632C72.7165 17.616 71.7458 19.2693 69.8045 20.592C67.8845 21.8933 64.9085 22.5547 60.8765 22.576C60.9405 23.9413 61.2498 25.0187 61.8045 25.808C62.3592 26.576 63.0525 26.96 63.8845 26.96C64.7165 26.96 65.4312 26.6827 66.0285 26.128C66.6472 25.5733 66.9565 24.6667 66.9565 23.408C70.0712 23.408 71.6285 24.144 71.6285 25.616C71.6285 26.8747 70.8605 28.0587 69.3245 29.168C67.7885 30.256 65.8152 30.8 63.4045 30.8ZM66.1245 14.544C65.0365 14.544 64.0338 15.088 63.1165 16.176C62.2205 17.264 61.5698 18.544 61.1645 20.016C63.2978 19.8453 64.8978 19.3653 65.9645 18.576C67.0525 17.7653 67.5965 16.912 67.5965 16.016C67.5965 15.5893 67.4578 15.2373 67.1805 14.96C66.9245 14.6827 66.5725 14.544 66.1245 14.544ZM87.5078 26.064L87.1878 25.904C86.6118 27.44 85.7798 28.6453 84.6918 29.52C83.6251 30.3733 82.4304 30.8 81.1078 30.8C79.2944 30.8 77.8438 30.1173 76.7558 28.752C75.6678 27.3867 75.1238 25.5627 75.1238 23.28C75.1238 19.7387 76.3078 16.7733 78.6758 14.384C81.0651 11.9947 84.0304 10.8 87.5718 10.8C88.4891 10.8 89.3318 10.8853 90.0998 11.056C90.2278 11.6533 90.3024 12.176 90.3238 12.624C91.3904 11.9413 92.4891 11.6 93.6198 11.6C95.1771 11.6 95.9558 12.4427 95.9558 14.128C95.9558 14.7253 95.6144 16.528 94.9318 19.536C94.2704 22.544 93.9398 24.7733 93.9398 26.224C93.9398 27.6747 94.2704 28.6773 94.9318 29.232C93.7371 30.2773 92.4891 30.8 91.1878 30.8C89.9078 30.8 88.9691 30.416 88.3718 29.648C87.7958 28.88 87.5078 27.6853 87.5078 26.064ZM81.1398 21.712C81.1398 22.7573 81.3531 23.568 81.7798 24.144C82.2278 24.6987 82.8571 24.976 83.6678 24.976C84.4784 24.976 85.2784 24.6773 86.0678 24.08C86.8571 23.4827 87.5184 22.6613 88.0518 21.616C88.2438 19.4613 88.6598 16.912 89.2998 13.968C87.1451 13.968 85.2464 14.7467 83.6038 16.304C81.9611 17.8613 81.1398 19.664 81.1398 21.712ZM100.446 26.48C100.446 26.48 100.489 23.5467 100.574 17.68C100.574 15.2053 99.9983 13.3707 98.8463 12.176C99.9556 11.2587 101.172 10.8 102.494 10.8C104.222 10.8 105.396 11.568 106.014 13.104C106.548 14.4267 106.814 16.432 106.814 19.12C106.814 21.7867 106.761 24.3787 106.654 26.896H107.742C110.985 20.0907 112.606 15.664 112.606 13.616C112.606 13.1253 112.51 12.6453 112.318 12.176C113.897 11.2587 115.326 10.8 116.606 10.8C118.27 10.8 119.102 11.8027 119.102 13.808C119.102 14.7253 118.868 15.8773 118.398 17.264C117.929 18.6293 117.204 20.4 116.222 22.576C115.262 24.7307 114.761 25.8507 114.718 25.936L115.134 27.792C114.238 28.6027 112.958 29.3067 111.294 29.904C109.63 30.5013 107.87 30.8 106.014 30.8C104.158 30.8 102.761 30.4693 101.822 29.808C100.905 29.1253 100.446 28.016 100.446 26.48ZM130.498 30.8C127.576 30.8 125.314 30.0427 123.714 28.528C122.136 27.0133 121.346 24.9653 121.346 22.384C121.346 18.9493 122.52 16.1653 124.866 14.032C127.234 11.8773 130.2 10.8 133.762 10.8C135.746 10.8 137.25 11.248 138.274 12.144C139.298 13.0187 139.81 14.1813 139.81 15.632C139.81 17.616 138.84 19.2693 136.898 20.592C134.978 21.8933 132.002 22.5547 127.97 22.576C128.034 23.9413 128.344 25.0187 128.898 25.808C129.453 26.576 130.146 26.96 130.978 26.96C131.81 26.96 132.525 26.6827 133.122 26.128C133.741 25.5733 134.05 24.6667 134.05 23.408C137.165 23.408 138.722 24.144 138.722 25.616C138.722 26.8747 137.954 28.0587 136.418 29.168C134.882 30.256 132.909 30.8 130.498 30.8ZM133.218 14.544C132.13 14.544 131.128 15.088 130.21 16.176C129.314 17.264 128.664 18.544 128.258 20.016C130.392 19.8453 131.992 19.3653 133.058 18.576C134.146 17.7653 134.69 16.912 134.69 16.016C134.69 15.5893 134.552 15.2373 134.274 14.96C134.018 14.6827 133.666 14.544 133.218 14.544Z" fill="#FFBB44"/>
</svg>
