<svg width="235" height="54" viewBox="0 0 235 54" fill="none" xmlns="http://www.w3.org/2000/svg">
<path d="M87.2852 27.4492C87.2852 30.6654 86.6667 33.3542 85.4297 35.5156C84.2057 37.6641 82.4284 39.2852 80.0977 40.3789C77.7669 41.4596 74.9609 42 71.6797 42H63.5938V13.4453H72.5586C75.5534 13.4453 78.151 13.9792 80.3516 15.0469C82.5521 16.1016 84.2578 17.6706 85.4688 19.7539C86.6797 21.8242 87.2852 24.3893 87.2852 27.4492ZM80.9961 27.6055C80.9961 25.4961 80.6836 23.7643 80.0586 22.4102C79.4466 21.043 78.5352 20.0339 77.3242 19.3828C76.1263 18.7318 74.6419 18.4062 72.8711 18.4062H69.6484V37H72.2461C75.2018 37 77.3958 36.2122 78.8281 34.6367C80.2734 33.0612 80.9961 30.7174 80.9961 27.6055ZM101.738 19.7539C103.757 19.7539 105.495 20.1445 106.953 20.9258C108.411 21.694 109.538 22.8138 110.332 24.2852C111.126 25.7565 111.523 27.5534 111.523 29.6758V32.5664H97.4414C97.5065 34.2461 98.0078 35.5677 98.9453 36.5312C99.8958 37.4818 101.211 37.957 102.891 37.957C104.284 37.957 105.56 37.8138 106.719 37.5273C107.878 37.2409 109.069 36.8112 110.293 36.2383V40.8477C109.212 41.3815 108.079 41.7721 106.895 42.0195C105.723 42.2669 104.297 42.3906 102.617 42.3906C100.43 42.3906 98.4896 41.987 96.7969 41.1797C95.1172 40.3724 93.7956 39.1419 92.832 37.4883C91.8815 35.8346 91.4062 33.7513 91.4062 31.2383C91.4062 28.6862 91.8359 26.5638 92.6953 24.8711C93.5677 23.1654 94.7786 21.8893 96.3281 21.043C97.8776 20.1836 99.681 19.7539 101.738 19.7539ZM101.777 23.9922C100.618 23.9922 99.6549 24.3633 98.8867 25.1055C98.1315 25.8477 97.6953 27.013 97.5781 28.6016H105.938C105.924 27.7161 105.762 26.9284 105.449 26.2383C105.15 25.5482 104.694 25.0013 104.082 24.5977C103.483 24.194 102.715 23.9922 101.777 23.9922ZM121.562 42L113.242 20.1641H119.473L123.691 32.6055C123.926 33.3346 124.108 34.1029 124.238 34.9102C124.382 35.7174 124.479 36.4401 124.531 37.0781H124.688C124.727 36.388 124.818 35.6523 124.961 34.8711C125.117 34.0898 125.319 33.3346 125.566 32.6055L129.766 20.1641H135.996L127.676 42H121.562ZM139.609 42V13.4453H145.664V37H157.246V42H139.609ZM170.703 19.7148C173.633 19.7148 175.879 20.3529 177.441 21.6289C179.004 22.9049 179.785 24.8451 179.785 27.4492V42H175.625L174.473 39.0312H174.316C173.691 39.8125 173.053 40.4505 172.402 40.9453C171.751 41.4401 171.003 41.8047 170.156 42.0391C169.31 42.2734 168.281 42.3906 167.07 42.3906C165.781 42.3906 164.622 42.1432 163.594 41.6484C162.578 41.1536 161.777 40.3984 161.191 39.3828C160.605 38.3542 160.312 37.0521 160.312 35.4766C160.312 33.1589 161.126 31.4531 162.754 30.3594C164.382 29.2526 166.823 28.6406 170.078 28.5234L173.867 28.4062V27.4492C173.867 26.3034 173.568 25.4635 172.969 24.9297C172.37 24.3958 171.536 24.1289 170.469 24.1289C169.414 24.1289 168.379 24.2786 167.363 24.5781C166.348 24.8776 165.332 25.2552 164.316 25.7109L162.344 21.6875C163.503 21.0755 164.798 20.5938 166.23 20.2422C167.676 19.8906 169.167 19.7148 170.703 19.7148ZM173.867 31.8828L171.562 31.9609C169.635 32.013 168.294 32.3581 167.539 32.9961C166.797 33.6341 166.426 34.474 166.426 35.5156C166.426 36.4271 166.693 37.0781 167.227 37.4688C167.76 37.8464 168.457 38.0352 169.316 38.0352C170.592 38.0352 171.667 37.6576 172.539 36.9023C173.424 36.1471 173.867 35.0729 173.867 33.6797V31.8828ZM198.34 19.7539C200.671 19.7539 202.546 20.3919 203.965 21.668C205.384 22.931 206.094 24.9622 206.094 27.7617V42H200.137V29.2461C200.137 27.6836 199.85 26.5052 199.277 25.7109C198.717 24.9167 197.832 24.5195 196.621 24.5195C194.798 24.5195 193.555 25.138 192.891 26.375C192.227 27.612 191.895 29.3958 191.895 31.7266V42H185.938V20.1641H190.488L191.289 22.957H191.621C192.09 22.2018 192.669 21.5898 193.359 21.1211C194.062 20.6523 194.837 20.3073 195.684 20.0859C196.543 19.8646 197.428 19.7539 198.34 19.7539ZM219.141 42.3906C216.706 42.3906 214.72 41.4401 213.184 39.5391C211.66 37.625 210.898 34.819 210.898 31.1211C210.898 27.3841 211.673 24.5586 213.223 22.6445C214.772 20.7174 216.797 19.7539 219.297 19.7539C220.339 19.7539 221.257 19.8971 222.051 20.1836C222.845 20.4701 223.529 20.8542 224.102 21.3359C224.688 21.8177 225.182 22.3581 225.586 22.957H225.781C225.703 22.5404 225.605 21.9284 225.488 21.1211C225.384 20.3008 225.332 19.4609 225.332 18.6016V11.6094H231.309V42H226.738L225.586 39.168H225.332C224.954 39.7669 224.479 40.3138 223.906 40.8086C223.346 41.2904 222.676 41.6745 221.895 41.9609C221.113 42.2474 220.195 42.3906 219.141 42.3906ZM221.23 37.6445C222.858 37.6445 224.004 37.1628 224.668 36.1992C225.345 35.2227 225.703 33.7578 225.742 31.8047V31.1602C225.742 29.0378 225.417 27.4167 224.766 26.2969C224.115 25.1641 222.904 24.5977 221.133 24.5977C219.818 24.5977 218.789 25.1641 218.047 26.2969C217.305 27.4297 216.934 29.0638 216.934 31.1992C216.934 33.3346 217.305 34.9427 218.047 36.0234C218.802 37.1042 219.863 37.6445 221.23 37.6445Z" fill="#263238"/>
<path d="M23.5 2.73205C25.3564 1.66025 27.6436 1.66025 29.5 2.73205L46.4497 12.5179C48.3061 13.5897 49.4497 15.5705 49.4497 17.7141V37.2859C49.4497 39.4295 48.3061 41.4103 46.4497 42.4821L29.5 52.2679C27.6436 53.3397 25.3564 53.3397 23.5 52.2679L6.55033 42.4821C4.69392 41.4103 3.55033 39.4295 3.55033 37.2859V17.7141C3.55033 15.5705 4.69392 13.5897 6.55033 12.5179L23.5 2.73205Z" fill="#FCAF17"/>
<path d="M26.3076 15L17.9999 23.3077L26.3076 31.6154" fill="#FCAF17"/>
<path d="M26.3076 15L17.9999 23.3077L26.3076 31.6154" stroke="white" stroke-width="3.46154" stroke-miterlimit="10" stroke-linecap="square"/>
<path d="M27 23L35.3077 31.3077L27 39.6154" fill="#FCAF17"/>
<path d="M27 23L35.3077 31.3077L27 39.6154" stroke="white" stroke-width="3.46154" stroke-miterlimit="10" stroke-linecap="square"/>
</svg>
